<svg id="visual" viewBox="0 0 2560 400" width="2560" height="400" xmlns="http://www.w3.org/2000/svg" xmlns:xlink="http://www.w3.org/1999/xlink" version="1.1"><path d="M0 300L26.7 290.5C53.3 281 106.7 262 160 266.7C213.3 271.3 266.7 299.7 320 302.2C373.3 304.7 426.7 281.3 480 271C533.3 260.7 586.7 263.3 640 274C693.3 284.7 746.7 303.3 800 307.2C853.3 311 906.7 300 960 288.8C1013.3 277.7 1066.7 266.3 1120 257.7C1173.3 249 1226.7 243 1280 255C1333.3 267 1386.7 297 1440 297.8C1493.3 298.7 1546.7 270.3 1600 265.3C1653.3 260.3 1706.7 278.7 1760 293C1813.3 307.3 1866.7 317.7 1920 318.2C1973.3 318.7 2026.7 309.3 2080 307.7C2133.3 306 2186.7 312 2240 310.2C2293.3 308.3 2346.7 298.7 2400 290.7C2453.3 282.7 2506.7 276.3 2533.3 273.2L2560 270L2560 0L2533.3 0C2506.7 0 2453.3 0 2400 0C2346.7 0 2293.3 0 2240 0C2186.7 0 2133.3 0 2080 0C2026.7 0 1973.3 0 1920 0C1866.7 0 1813.3 0 1760 0C1706.7 0 1653.3 0 1600 0C1546.7 0 1493.3 0 1440 0C1386.7 0 1333.3 0 1280 0C1226.7 0 1173.3 0 1120 0C1066.7 0 1013.3 0 960 0C906.7 0 853.3 0 800 0C746.7 0 693.3 0 640 0C586.7 0 533.3 0 480 0C426.7 0 373.3 0 320 0C266.7 0 213.3 0 160 0C106.7 0 53.3 0 26.7 0L0 0Z" fill="#132237"></path><path d="M0 177L26.7 190.7C53.3 204.3 106.7 231.7 160 245.2C213.3 258.7 266.7 258.3 320 242.8C373.3 227.3 426.7 196.7 480 185.2C533.3 173.7 586.7 181.3 640 188.2C693.3 195 746.7 201 800 210.8C853.3 220.7 906.7 234.3 960 231.3C1013.3 228.3 1066.7 208.7 1120 206.7C1173.3 204.7 1226.7 220.3 1280 225.3C1333.3 230.3 1386.7 224.7 1440 224.5C1493.3 224.3 1546.7 229.7 1600 224.8C1653.3 220 1706.7 205 1760 207.2C1813.3 209.3 1866.7 228.7 1920 239.5C1973.3 250.3 2026.7 252.7 2080 250.5C2133.3 248.3 2186.7 241.7 2240 233.7C2293.3 225.7 2346.7 216.3 2400 211.7C2453.3 207 2506.7 207 2533.3 207L2560 207L2560 0L2533.3 0C2506.7 0 2453.3 0 2400 0C2346.7 0 2293.3 0 2240 0C2186.7 0 2133.3 0 2080 0C2026.7 0 1973.3 0 1920 0C1866.7 0 1813.3 0 1760 0C1706.7 0 1653.3 0 1600 0C1546.7 0 1493.3 0 1440 0C1386.7 0 1333.3 0 1280 0C1226.7 0 1173.3 0 1120 0C1066.7 0 1013.3 0 960 0C906.7 0 853.3 0 800 0C746.7 0 693.3 0 640 0C586.7 0 533.3 0 480 0C426.7 0 373.3 0 320 0C266.7 0 213.3 0 160 0C106.7 0 53.3 0 26.7 0L0 0Z" fill="#132237"></path><path d="M0 167L26.7 156.7C53.3 146.3 106.7 125.7 160 119.7C213.3 113.7 266.7 122.3 320 130.5C373.3 138.7 426.7 146.3 480 143C533.3 139.7 586.7 125.3 640 126.8C693.3 128.3 746.7 145.7 800 159.2C853.3 172.7 906.7 182.3 960 180.2C1013.3 178 1066.7 164 1120 153.3C1173.3 142.7 1226.7 135.3 1280 126C1333.3 116.7 1386.7 105.3 1440 111.5C1493.3 117.7 1546.7 141.3 1600 148C1653.3 154.7 1706.7 144.3 1760 134.5C1813.3 124.7 1866.7 115.3 1920 111.5C1973.3 107.7 2026.7 109.3 2080 119.3C2133.3 129.3 2186.7 147.7 2240 153.5C2293.3 159.3 2346.7 152.7 2400 152C2453.3 151.3 2506.7 156.7 2533.3 159.3L2560 162L2560 0L2533.3 0C2506.7 0 2453.3 0 2400 0C2346.7 0 2293.3 0 2240 0C2186.7 0 2133.3 0 2080 0C2026.7 0 1973.3 0 1920 0C1866.7 0 1813.3 0 1760 0C1706.7 0 1653.3 0 1600 0C1546.7 0 1493.3 0 1440 0C1386.7 0 1333.3 0 1280 0C1226.7 0 1173.3 0 1120 0C1066.7 0 1013.3 0 960 0C906.7 0 853.3 0 800 0C746.7 0 693.3 0 640 0C586.7 0 533.3 0 480 0C426.7 0 373.3 0 320 0C266.7 0 213.3 0 160 0C106.7 0 53.3 0 26.7 0L0 0Z" fill="#132237"></path><path d="M0 53L26.7 60.8C53.3 68.7 106.7 84.3 160 91C213.3 97.7 266.7 95.3 320 85.2C373.3 75 426.7 57 480 49C533.3 41 586.7 43 640 42.2C693.3 41.3 746.7 37.7 800 37.2C853.3 36.7 906.7 39.3 960 43.5C1013.3 47.7 1066.7 53.3 1120 59.2C1173.3 65 1226.7 71 1280 77C1333.3 83 1386.7 89 1440 88.2C1493.3 87.3 1546.7 79.7 1600 74C1653.3 68.3 1706.7 64.7 1760 56.3C1813.3 48 1866.7 35 1920 42.2C1973.3 49.3 2026.7 76.7 2080 81C2133.3 85.3 2186.7 66.7 2240 55.8C2293.3 45 2346.7 42 2400 52.2C2453.3 62.3 2506.7 85.7 2533.3 97.3L2560 109L2560 0L2533.3 0C2506.7 0 2453.3 0 2400 0C2346.7 0 2293.3 0 2240 0C2186.7 0 2133.3 0 2080 0C2026.7 0 1973.3 0 1920 0C1866.7 0 1813.3 0 1760 0C1706.7 0 1653.3 0 1600 0C1546.7 0 1493.3 0 1440 0C1386.7 0 1333.3 0 1280 0C1226.7 0 1173.3 0 1120 0C1066.7 0 1013.3 0 960 0C906.7 0 853.3 0 800 0C746.7 0 693.3 0 640 0C586.7 0 533.3 0 480 0C426.7 0 373.3 0 320 0C266.7 0 213.3 0 160 0C106.7 0 53.3 0 26.7 0L0 0Z" fill="#132237"></path></svg>