<svg id="visual" viewBox="0 0 900 600" width="900" height="600" xmlns="http://www.w3.org/2000/svg" xmlns:xlink="http://www.w3.org/1999/xlink" version="1.1"><path d="M0 182L18.8 182C37.7 182 75.3 182 112.8 187.3C150.3 192.7 187.7 203.3 225.2 208C262.7 212.7 300.3 211.3 337.8 197.8C375.3 184.3 412.7 158.7 450.2 148.3C487.7 138 525.3 143 562.8 145C600.3 147 637.7 146 675.2 151.7C712.7 157.3 750.3 169.7 787.8 169.5C825.3 169.3 862.7 156.7 881.3 150.3L900 144L900 0L881.3 0C862.7 0 825.3 0 787.8 0C750.3 0 712.7 0 675.2 0C637.7 0 600.3 0 562.8 0C525.3 0 487.7 0 450.2 0C412.7 0 375.3 0 337.8 0C300.3 0 262.7 0 225.2 0C187.7 0 150.3 0 112.8 0C75.3 0 37.7 0 18.8 0L0 0Z" fill="#132237" stroke-linecap="round" stroke-linejoin="miter"></path></svg>